<?xml version="1.0" standalone="no"?>
<!DOCTYPE svg PUBLIC "-//W3C//DTD SVG 20010904//EN"
 "http://www.w3.org/TR/2001/REC-SVG-20010904/DTD/svg10.dtd">
<svg version="1.0" xmlns="http://www.w3.org/2000/svg"
 width="500.000000pt" height="369.000000pt" viewBox="0 0 500.000000 369.000000"
 preserveAspectRatio="xMidYMid meet">

<g transform="translate(0.000000,369.000000) scale(0.100000,-0.100000)"
fill="#000000" stroke="none">
<path d="M2062 2568 c-103 -16 -193 -82 -239 -176 -24 -50 -28 -69 -28 -147 0
-75 4 -97 23 -135 35 -64 253 -351 277 -362 11 -5 30 -5 42 -1 23 8 252 305
278 359 27 57 36 132 24 198 -13 72 -28 104 -77 158 -81 89 -181 125 -300 106z
m132 -242 c31 -29 36 -40 36 -78 0 -55 -26 -92 -75 -108 -49 -16 -89 -4 -125
36 -66 76 -13 182 92 184 28 0 45 -8 72 -34z"/>
<path d="M2842 2354 c-38 -15 -72 -67 -72 -109 0 -60 55 -114 117 -115 48 0
81 16 103 52 61 101 -40 218 -148 172z"/>
<path d="M2321 1604 c-12 -15 -21 -30 -21 -34 0 -15 79 -125 114 -160 41 -40
42 -50 17 -106 -45 -98 -172 -114 -250 -30 -43 45 -101 28 -101 -30 0 -30 48
-81 102 -108 94 -47 218 -31 291 38 l28 26 45 -34 c61 -47 103 -59 184 -54 57
3 76 9 118 38 59 40 86 81 78 116 -11 44 -76 52 -97 12 -32 -60 -137 -76 -203
-32 -54 37 -86 121 -53 141 7 4 39 41 70 82 64 81 72 119 35 145 -18 13 -54
16 -179 16 l-158 0 -20 -26z"/>
</g>
</svg>
