<svg width="257" height="306" viewBox="0 0 257 306" fill="none" xmlns="http://www.w3.org/2000/svg">
<g filter="url(#filter0_d)">
<path d="M53.4 1.3997C32.8 4.5997 14.8 17.7997 5.6 36.5997C0.8 46.5997 0 50.3997 0 65.9997C0 80.9997 0.8 85.3997 4.6 92.9997C11.6 105.8 55.2 163.2 60 165.4C62.2 166.4 66 166.4 68.4 165.6C73 164 118.8 104.6 124 93.7997C129.4 82.3997 131.2 67.3997 128.8 54.1997C126.2 39.7997 123.2 33.3997 113.4 22.5997C97.2 4.7997 77.2 -2.40029 53.4 1.3997ZM79.8 49.7997C86 55.5997 87 57.7997 87 65.3997C87 76.3997 81.8 83.7997 72 86.9997C62.2 90.1997 54.2 87.7997 47 79.7997C33.8 64.5997 44.4 43.3997 65.4 42.9997C71 42.9997 74.4 44.5997 79.8 49.7997Z" fill="#99E3EE"/>
<path d="M209.4 44.2C201.8 47.2 195 57.6 195 66C195 78 206 88.8 218.4 89C228 89 234.6 85.8 239 78.6C251.2 58.4 231 35 209.4 44.2Z" fill="#2E87BF"/>
<path d="M105.2 194.2C102.8 197.2 101 200.2 101 201C101 204 116.8 226 123.8 233C132 241 132.2 243 127.2 254.2C118.2 273.8 92.8 277 77.2 260.2C68.6 251.2 57 254.6 57 266.2C57 272.2 66.6 282.4 77.4 287.8C96.2 297.2 121 294 135.6 280.2L141.2 275L150.2 281.8C162.4 291.2 170.8 293.6 187 292.6C198.4 292 202.2 290.8 210.6 285C222.4 277 227.8 268.8 226.2 261.8C224 253 211 251.4 206.8 259.4C200.4 271.4 179.4 274.6 166.2 265.8C155.4 258.4 149 241.6 155.6 237.6C157 236.8 163.4 229.4 169.6 221.2C182.4 205 184 197.4 176.6 192.2C173 189.6 165.8 189 140.8 189H109.2L105.2 194.2Z" fill="#2E87BF"/>
</g>
<defs>
<filter id="filter0_d" x="0" y="0.413086" width="256.687" height="304.755" filterUnits="userSpaceOnUse" color-interpolation-filters="sRGB">
<feFlood flood-opacity="0" result="BackgroundImageFix"/>
<feColorMatrix in="SourceAlpha" type="matrix" values="0 0 0 0 0 0 0 0 0 0 0 0 0 0 0 0 0 0 127 0"/>
<feOffset dx="8" dy="6"/>
<feGaussianBlur stdDeviation="3"/>
<feColorMatrix type="matrix" values="0 0 0 0 0 0 0 0 0 0 0 0 0 0 0 0 0 0 0.25 0"/>
<feBlend mode="normal" in2="BackgroundImageFix" result="effect1_dropShadow"/>
<feBlend mode="normal" in="SourceGraphic" in2="effect1_dropShadow" result="shape"/>
</filter>
</defs>
</svg>
